<?xml version="1.0" encoding="UTF-8"?>
<svg id="Front_Label_Design" data-name="Front Label Design" xmlns="http://www.w3.org/2000/svg" viewBox="0 0 246.26 59.43">
  <g id="MUSE_Logo_Text" data-name="MUSE Logo Text">
    <g>
      <path d="M.6,57.85h.5c3.75-.08,6.09-1.5,6.17-14.92,0-15.42.08-29.93.08-34.68,0-1.58-.25-3.17-1.17-4.17C4.69,2.42,2.94,1.5.85,1.5h-.42C-.15,1.5-.15.83.44.83,6.44.83,8.36.25,8.94.25c.42,0,.92.17,1.08.5.58,1.08,2.17,3.5,3.34,5.17l21.17,31.01,17.42-27.76c1.83-2.92,3.08-4.92,3.92-6.34,1.33-1.92,1.67-2.42,2.42-2.42,1.25,0,7.59.42,9,.42.67,0,.67.75,0,.75h-1.25c-4.08,0-4.5.33-4.5,15.17v24.01c0,16.76.42,17.09,4.5,17.09h1.25c.67,0,.67.75,0,.75-2.33,0-7.75-.25-8.92-.25-1.25,0-5.34.25-7.67.25-.67,0-.67-.75,0-.75h1.67c4.09,0,4.5-.33,4.5-17.09V6.17c0-.92-.25-1.25-.58-1.25s-.75.5-1.83,2.17l-20.92,33.34c-.25.5-.5.67-.83.67h-.5c-.25,0-.5-.17-.83-.67L8.44,7l-.08,36.09c-.08,14.42,4.67,14.76,8.75,14.76h1.17c.58,0,.58.75,0,.75-2.42.08-9.75-.25-11-.25s-4.42.25-6.75.25c-.58,0-.67-.75.08-.75"/>
      <path d="M87.92,36.34v-18.51c0-15.92-.42-16.26-4.42-16.26h-1.17c-.67,0-.67-.75,0-.75,2.33,0,6.75.25,8,.25,1.17,0,6-.25,8.34-.25.67,0,.67.75,0,.75h-1.5c-4.08,0-4.58.33-4.58,16.26v16.26c0,14.75,6.25,23.09,18.51,23.09,10.59,0,16.76-8.59,16.76-21.42v-18.34c0-15.51-3.58-15.84-9.34-15.84h-.75c-.67,0-.67-.75,0-.75,2.42,0,9.34.25,10.59.25s4.33-.25,6.67-.25c.67,0,.67.75,0,.75h-.58c-4,0-5.42.33-5.42,15.84v18.34c0,13.67-7,23.67-20.76,23.67-12.84,0-20.34-8.17-20.34-23.09"/>
      <path d="M245.34,45.61h0c-1.12,7.93-7,12.08-15.38,12.08-4.25,0-16.76-.33-19.17-.25.33-1.5.58-4.67.58-9.34v-18.92h11.25c7.5,0,10.17,2.67,10.17,9.67v1.25c0,.67.83.67.83,0,0-1.25-.42-10.25-.42-11.42,0-1.25.42-9.42.42-11.84,0-.67-.83-.67-.83,0v1.75c0,7-2.67,9.59-10.17,9.59h-11.25v-11.92c0-2.35-.01-4.31-.02-5.96-.02-7.94.18-8.46,3.35-8.46h14.42c6.85,0,13.75,1.47,14.67,8.07h0c.05.24.26.38.47.39h.02c.2,0,.38-.12.34-.4v-.05c-.7-4.98-1.26-8.48-1.58-8.67-.5-.25-2.42-.33-3.92-.33-3,0-28.26.25-29.43.25-1.25,0-6.83-.25-9.17-.25-.67,0-.67.75,0,.75h1.5c3.29,0,4.3.12,4.58,8.71.07,2.09.09,4.67.09,7.88,0,9.92.06,19.36-.07,27.03-.02,1.41-.05,2.78-.09,4.06-.42,8-1,8.67-5.83,8.67-.83,0-.83.67,0,.67,1.42-.08,8.67-.25,9.67-.25,2.92,0,17.09.25,22.76.25s10.92.08,11.25-.25c.3-.26.61-1.91.98-4.81h.03c.1-.88.2-1.81.3-2.77.17-1.47.35-3.15.55-5.02l.02-.14c.08-.58-.83-.5-.92,0"/>
      <path d="M168.1,27.67c-9.92-3.83-17.84-6.75-17.84-15.17,0-6.59,5.92-11.67,16.09-11.67s16.92,2.81,17.2,8.72h0c.02.49.22.74.41.74.16,0,.31-.16.38-.46.02-.08.04-.52.04-.52v-.03c0-.16,0-.32,0-.47.16-3.18.31-4.86.22-5.73-.01-.12-.04-.22-.06-.3-.12-.39-.38-.48-.85-.61-.33-.08-.66-.15-.99-.23-4.47-1-9.36-1.94-16.26-1.94-10.92,0-19.92,5.75-19.92,15.67,0,8.75,7.83,11.92,17.84,15.75,9.2,3.57,16.59,6.46,17.28,13.78.03.37.06.75.06,1.15,0,7.42-5.25,12.25-14.67,12.25-10.87,0-16.91-4-18.01-11.7,0-.07-.1-1.04-.25-1.29-.31-.53-.82-.54-1.12,0-.1.17-.24.55-.24,1.09,0,0,.02,5.76.04,9.45.04.33.2.47.82.61.45.12.9.24,1.35.35,5.37,1.39,10.24,2.31,17.32,2.31,9.69,0,17.47-5.64,18.41-14.23.06-.58.1-1.17.1-1.77,0-8.75-8-12.17-17.34-15.76"/>
    </g>
  </g>
</svg>